<svg width="58" height="58" viewBox="0 0 58 58" fill="none" xmlns="http://www.w3.org/2000/svg">
<path fill-rule="evenodd" clip-rule="evenodd" d="M9.66797 30.0154C9.66797 18.7778 18.7788 9.66699 30.0162 9.66699C41.2296 9.66699 50.3404 18.7778 50.3404 30.0154C50.3404 41.2529 41.2296 50.3637 30.0162 50.3637C18.7788 50.3637 9.66797 41.2529 9.66797 30.0154ZM29.4121 35.8395L38.5954 26.6803C39.3204 25.9553 39.3204 24.8195 38.5954 24.0945C37.8946 23.3937 36.7346 23.3937 36.0337 24.0945L28.1312 31.997L24.8205 28.6862C24.0955 27.9854 22.9596 27.9854 22.2588 28.6862C21.558 29.4112 21.558 30.547 22.2588 31.2479L26.8505 35.8395C27.213 36.202 27.6721 36.3712 28.1312 36.3712C28.5904 36.3712 29.0496 36.202 29.4121 35.8395Z" fill="#0091FF"/>
</svg>
