<svg width="48" height="48" viewBox="0 0 48 48" fill="none" xmlns="http://www.w3.org/2000/svg">
<path fill-rule="evenodd" clip-rule="evenodd" d="M29.9728 27.9574C29.9728 28.4542 29.5696 28.8574 29.0728 28.8574C28.576 28.8574 28.1728 28.4542 28.1728 27.9574V23.8654C28.1728 22.6606 27.196 21.6814 25.9948 21.6814C24.7936 21.6814 23.8168 22.6606 23.8168 23.8654V27.9574C23.8168 28.4542 23.4136 28.8574 22.9168 28.8574C22.42 28.8574 22.0168 28.4542 22.0168 27.9574V23.8654C22.0168 21.6682 23.8012 19.8814 25.9948 19.8814C28.1884 19.8814 29.9728 21.6682 29.9728 23.8654V27.9574ZM18.9316 21.0094C18.4348 21.0094 17.9884 20.5582 17.9884 20.0614C17.9884 19.5646 18.4348 19.1134 18.9316 19.1134C19.4284 19.1134 19.8724 19.5646 19.8724 20.0614C19.8724 20.5582 19.4284 21.0094 18.9316 21.0094ZM19.8304 27.9574C19.8304 28.4542 19.4272 28.8574 18.9304 28.8574C18.4336 28.8574 18.0304 28.4542 18.0304 27.9574V23.4322C18.0304 22.9354 18.4336 22.5322 18.9304 22.5322C19.4272 22.5322 19.8304 22.9354 19.8304 23.4322V27.9574ZM29.062 12.6094H18.9412C15.1492 12.6094 12.6016 15.277 12.6016 19.2454V28.7734C12.6016 32.7418 15.1492 35.4094 18.9412 35.4094H29.0608C32.8528 35.4094 35.4016 32.7418 35.4016 28.7734V19.2454C35.4016 15.277 32.854 12.6094 29.062 12.6094Z" fill="#0091FF"/>
</svg>
