<svg width="48" height="48" viewBox="0 0 48 48" fill="none" xmlns="http://www.w3.org/2000/svg">
<path fill-rule="evenodd" clip-rule="evenodd" d="M28.158 29.6211C28.158 30.0351 27.822 30.3711 27.408 30.3711C26.994 30.3711 26.658 30.0351 26.658 29.6211V24.4411C26.658 24.0271 26.994 23.6911 27.408 23.6911C27.822 23.6911 28.158 24.0271 28.158 24.4411V29.6211ZM26.285 20.4011H21.717V18.0011C21.717 17.5161 22.111 17.1211 22.596 17.1211H25.405C25.89 17.1211 26.285 17.5161 26.285 18.0011V20.4011ZM24.752 29.6211C24.752 30.0351 24.416 30.3711 24.002 30.3711C23.588 30.3711 23.252 30.0351 23.252 29.6211V24.4411C23.252 24.0271 23.588 23.6911 24.002 23.6911C24.416 23.6911 24.752 24.0271 24.752 24.4411V29.6211ZM21.352 29.6211C21.352 30.0351 21.016 30.3711 20.602 30.3711C20.188 30.3711 19.852 30.0351 19.852 29.6211V24.4411C19.852 24.0271 20.188 23.6911 20.602 23.6911C21.016 23.6911 21.352 24.0271 21.352 24.4411V29.6211ZM27.785 20.4321V18.0011C27.785 16.6881 26.717 15.6211 25.405 15.6211H22.596C21.284 15.6211 20.217 16.6881 20.217 18.0011V20.4321C17.921 20.5931 16.501 22.1561 16.501 24.6211V29.3011C16.501 31.6391 17.769 33.1731 19.85 33.4681V34.3711C19.85 34.7851 20.186 35.1211 20.6 35.1211C21.014 35.1211 21.35 34.7851 21.35 34.3711V33.5311H26.656V34.3711C26.656 34.7851 26.992 35.1211 27.406 35.1211C27.82 35.1211 28.156 34.7851 28.156 34.3711V33.4681C30.234 33.1731 31.499 31.6421 31.499 29.3101V24.6211C31.499 22.1551 30.08 20.5921 27.785 20.4321Z" fill="white"/>
</svg>
