<svg width="48" height="48" viewBox="0 0 48 48" fill="none" xmlns="http://www.w3.org/2000/svg">
<path d="M31.4942 31.5391C32.0096 31.0272 32.8357 31.0272 33.3511 31.5391L36.7573 34.2886H36.8165C37.5056 34.9851 37.5056 36.1144 36.8165 36.8109C36.1273 37.5075 35.01 37.5075 34.3209 36.8109L31.4942 33.5713L31.387 33.4503C31.1872 33.1974 31.0768 32.882 31.0768 32.5552C31.0768 32.1739 31.227 31.8082 31.4942 31.5391ZM22.1035 10.6667C25.1367 10.6667 28.0457 11.8846 30.1906 14.0525C32.3354 16.2204 33.5403 19.1607 33.5403 22.2266C33.5403 28.6109 28.4199 33.7865 22.1035 33.7865C15.7871 33.7865 10.6666 28.6109 10.6666 22.2266C10.6666 15.8422 15.7871 10.6667 22.1035 10.6667Z" fill="white"/>
</svg>
