<svg width="48" height="48" viewBox="0 0 48 48" fill="none" xmlns="http://www.w3.org/2000/svg">
<path fill-rule="evenodd" clip-rule="evenodd" d="M23.4989 21.975C22.1714 21.975 21.0914 20.895 21.0914 19.5675C21.0914 18.24 22.1714 17.16 23.4989 17.16C24.8264 17.16 25.9064 18.24 25.9064 19.5675C25.9064 20.895 24.8264 21.975 23.4989 21.975ZM23.4989 12.6713C19.6626 12.6713 16.5464 15.7875 16.5464 19.6238C16.5464 24.3825 21.9801 29.0738 23.4989 29.0738C25.0064 29.0738 30.4401 24.3825 30.4401 19.6238C30.4401 15.7875 27.3239 12.6713 23.4989 12.6713Z" fill="#FAFAFA"/>
<path fill-rule="evenodd" clip-rule="evenodd" d="M31.1639 26.6454C30.7578 26.4159 30.2425 26.5622 30.0153 26.9683C29.7869 27.3744 29.9309 27.8886 30.3381 28.1169C31.21 28.6063 31.6904 29.1531 31.6904 29.6582C31.6904 30.3366 30.8433 30.9137 30.3213 31.2073C29.9781 31.4098 29.5945 31.5876 29.1456 31.7518C26.0451 32.9004 20.9635 32.9027 17.8517 31.7496C17.4366 31.5988 17.035 31.4132 16.6559 31.1972C16.1496 30.9148 15.3025 30.3377 15.3025 29.6582C15.3025 28.9764 16.1496 28.4004 16.6559 28.1169C17.062 27.8886 17.206 27.3744 16.9787 26.9683C16.7504 26.5622 16.2374 26.4182 15.829 26.6454C13.9997 27.6714 13.615 28.8493 13.615 29.6582C13.615 30.4648 13.9997 31.6427 15.8256 32.6676C16.2835 32.9274 16.7717 33.1524 17.2701 33.3336C19.0037 33.9759 21.2166 34.3303 23.5004 34.3303C25.7864 34.3303 27.9993 33.9759 29.7284 33.3347C30.2718 33.1378 30.7465 32.9162 31.1639 32.6687C32.9931 31.6416 33.3779 30.4648 33.3779 29.6582C33.3779 28.8504 32.9931 27.6726 31.1639 26.6454Z" fill="#FAFAFA"/>
</svg>
