<svg width="48" height="48" viewBox="0 0 48 48" fill="none" xmlns="http://www.w3.org/2000/svg">
<path fill-rule="evenodd" clip-rule="evenodd" d="M33.205 18.1795C30.3245 18.1795 27.9725 15.845 27.9725 12.9645V9.391L37.216 18.1795H33.205ZM27.654 31.511H18.2057C17.4812 31.511 16.8932 30.923 16.8932 30.1985C16.8932 29.474 17.4812 28.886 18.2057 28.886H27.654C28.3803 28.886 28.9665 29.474 28.9665 30.1985C28.9665 30.923 28.3803 31.511 27.654 31.511ZM18.2022 21.8668H24.0753C24.7998 21.8668 25.3878 22.4548 25.3878 23.1793C25.3878 23.9055 24.7998 24.4918 24.0753 24.4918H18.2022C17.4777 24.4918 16.8897 23.9055 16.8897 23.1793C16.8897 22.4548 17.4777 21.8668 18.2022 21.8668ZM39.6712 18.4875C39.6712 18.4175 39.6712 18.365 39.6537 18.295C39.6012 17.98 39.5487 17.665 39.4962 17.3675C39.4612 17.175 39.3737 17.0175 39.2337 16.8775L29.3112 7.4275C29.1887 7.305 29.0138 7.2175 28.8388 7.2C28.5413 7.165 28.2263 7.13 27.9113 7.095C27.8588 7.0775 27.7888 7.0775 27.7363 7.0775C26.7213 6.99 25.6013 6.9375 24.4288 6.9375C12.9487 6.9375 8.87122 11.4 8.87122 24C8.87122 36.5825 12.9487 41.0625 24.4288 41.0625C35.9263 41.0625 40.0038 36.5825 40.0038 24C40.0038 21.9 39.8987 20.08 39.6712 18.4875Z" fill="white"/>
</svg>
