<svg width="48" height="48" viewBox="0 0 48 48" fill="none" xmlns="http://www.w3.org/2000/svg">
<path fill-rule="evenodd" clip-rule="evenodd" d="M24.6607 29.7348L21.8959 32.304C21.5575 32.6196 21.0067 32.3604 21.0379 31.8984C21.1243 30.5928 21.2587 28.6092 21.3487 27.5064C21.3631 27.3324 21.5095 27.138 21.6487 27.012C24.8779 24.084 28.1143 21.1632 31.3495 18.24C31.4695 18.132 31.6111 17.8656 31.5367 17.7252C31.4527 17.5668 31.0651 17.6148 30.9043 17.7156C26.7955 20.3028 22.6867 22.8888 18.5839 25.4844C18.3319 25.6428 18.0235 25.6812 17.7403 25.59C16.0483 25.0464 14.3467 24.5316 12.6511 23.9964C12.2611 23.8728 11.7979 23.7504 11.7535 23.2668C11.7067 22.7616 12.1399 22.5216 12.5311 22.3644C14.1079 21.7284 15.6955 21.12 17.2807 20.508C22.9831 18.3108 28.6855 16.1148 34.3879 13.9188C34.5787 13.8456 34.8331 13.8 35.0323 13.7604C35.6299 13.6404 36.1675 13.9404 36.2263 14.5452C36.2707 14.988 36.1927 15.4812 36.1003 15.9192C34.9123 21.57 33.7087 27.2184 32.5063 32.868C32.1823 34.3944 31.3975 34.6836 30.1339 33.7512C28.5055 32.5488 24.6607 29.7348 24.6607 29.7348Z" fill="#0091FF"/>
</svg>
