<svg width="48" height="48" viewBox="0 0 48 48" fill="none" xmlns="http://www.w3.org/2000/svg">
<path fill-rule="evenodd" clip-rule="evenodd" d="M16.6207 22.6431H18.8387C18.9492 22.6431 19.0382 22.5535 19.0372 22.4431C19.035 22.1766 19.0383 21.9043 19.1257 21.6531C19.2797 21.2261 19.6087 20.8971 20.0307 20.7461C20.2777 20.6571 20.5267 20.6571 20.9787 20.6571H21.5987C22.0517 20.6571 22.3017 20.6571 22.5477 20.7471C22.9687 20.8971 23.2977 21.2261 23.4497 21.6471C23.5379 21.9007 23.542 22.1745 23.5401 22.4431C23.5393 22.5535 23.6283 22.6431 23.7387 22.6431H24.3387C24.4492 22.6431 24.5382 22.5535 24.5373 22.4431C24.535 22.1766 24.5383 21.9043 24.6257 21.6531C24.7797 21.2261 25.1087 20.8971 25.5307 20.7461C25.7777 20.6571 26.0267 20.6571 26.4787 20.6571H27.0987C27.5517 20.6571 27.8017 20.6571 28.0477 20.7471C28.4687 20.8971 28.7977 21.2261 28.9497 21.6471C29.0379 21.9007 29.042 22.1745 29.0401 22.4431C29.0393 22.5535 29.1283 22.6431 29.2387 22.6431H31.4577C31.7347 22.6431 31.9577 22.4191 31.9577 22.1431V18.9291C31.9577 18.1581 31.9577 17.7711 31.8257 17.4031C31.5977 16.7711 31.1037 16.2791 30.4797 16.0561C30.1057 15.9141 29.7167 15.9141 28.9397 15.9141H19.1397C18.3627 15.9141 17.9737 15.9141 17.6097 16.0531C16.9757 16.2791 16.4817 16.7711 16.2537 17.4031C16.1207 17.7701 16.1207 18.1581 16.1207 18.9291V22.1431C16.1207 22.4191 16.3447 22.6431 16.6207 22.6431Z" fill="#09090B"/>
<path fill-rule="evenodd" clip-rule="evenodd" d="M33.6501 25.1452C33.4171 24.4932 32.9051 23.9752 32.2231 23.7172C31.8421 23.5872 31.4481 23.5872 30.7341 23.5872H17.3421C16.6281 23.5872 16.2351 23.5872 15.8311 23.7262C15.1731 23.9752 14.6621 24.4922 14.4291 25.1402C14.2891 25.5242 14.2891 25.9192 14.2891 26.6372V31.3372C14.2891 31.7512 14.6251 32.0872 15.0391 32.0872C15.4531 32.0872 15.7891 31.7512 15.7891 31.3372V31.0472C15.7891 30.9367 15.8786 30.8472 15.9891 30.8472H32.0891C32.1995 30.8472 32.2891 30.9367 32.2891 31.0472V31.3372C32.2891 31.7512 32.6251 32.0872 33.0391 32.0872C33.4531 32.0872 33.7891 31.7512 33.7891 31.3372V26.6372C33.7891 25.9192 33.7891 25.5242 33.6501 25.1452Z" fill="#09090B"/>
</svg>
