<svg width="48" height="48" viewBox="0 0 48 48" fill="none" xmlns="http://www.w3.org/2000/svg">
<path fill-rule="evenodd" clip-rule="evenodd" d="M20.4062 12.8125H26.5937C29.1373 12.8125 31.2062 14.8814 31.2062 17.4239V29.575C31.2062 32.1186 29.1373 34.1875 26.5937 34.1875H20.4062C17.8626 34.1875 15.7937 32.1186 15.7937 29.575V17.4239C15.7937 14.8814 17.8626 12.8125 20.4062 12.8125ZM21.9249 18.3812H25.0749C25.5407 18.3812 25.9187 18.0032 25.9187 17.5375C25.9187 17.0717 25.5407 16.6937 25.0749 16.6937H21.9249C21.4592 16.6937 21.0812 17.0717 21.0812 17.5375C21.0812 18.0032 21.4592 18.3812 21.9249 18.3812ZM22.4312 29.35C22.4312 29.9496 22.9003 30.4187 23.4999 30.4187C24.0051 30.4187 24.5687 29.962 24.5687 29.35C24.5687 28.738 24.0051 28.2812 23.4999 28.2812C22.9959 28.2812 22.4312 28.738 22.4312 29.35Z" fill="white"/>
</svg>
