<svg width="48" height="48" viewBox="0 0 48 48" fill="none" xmlns="http://www.w3.org/2000/svg">
<path fill-rule="evenodd" clip-rule="evenodd" d="M29.1378 23.0677C29.0228 23.4829 28.7478 23.8273 28.3615 24.0409C28.1078 24.1789 27.8278 24.2497 27.544 24.2497C27.394 24.2497 27.244 24.2305 27.0965 24.1921C26.6728 24.0865 26.314 23.8261 26.0915 23.4589C25.8665 23.0905 25.8065 22.6573 25.9228 22.2421C26.1565 21.3926 27.0728 20.8814 27.9603 21.1034L27.9665 21.1046C28.849 21.3422 29.374 22.2217 29.1378 23.0677ZM27.6465 28.4089C27.4478 29.1229 26.769 29.597 26.029 29.597C25.8903 29.597 25.7503 29.5813 25.6103 29.5454C24.7215 29.3078 24.194 28.4282 24.4303 27.5822C24.5478 27.167 24.8278 26.8213 25.2165 26.6089C25.6003 26.3989 26.0453 26.3437 26.4703 26.4578C26.8965 26.5645 27.2553 26.8273 27.479 27.1957C27.704 27.5689 27.7615 27.9985 27.6465 28.4089ZM23.569 21.6409C23.4515 22.0549 23.1728 22.4005 22.7828 22.6129C22.5303 22.7509 22.2503 22.8217 21.969 22.8217C21.8203 22.8217 21.6728 22.8025 21.5278 22.7641C21.1041 22.6574 20.7453 22.3945 20.5216 22.0261C20.2978 21.6541 20.2378 21.2234 20.3541 20.8118C20.5878 19.9622 21.4966 19.4558 22.3915 19.6766L22.3953 19.6778C23.279 19.9142 23.8053 20.7938 23.569 21.6409ZM22.0778 26.9797C21.879 27.6937 21.2003 28.1689 20.4628 28.1689C20.3228 28.1689 20.1828 28.1521 20.0416 28.1173C19.1528 27.8809 18.6253 26.9989 18.8616 26.1529C18.9778 25.7389 19.2541 25.3921 19.6403 25.1809C20.0241 24.9685 20.4691 24.9157 20.9016 25.0297C21.3291 25.1365 21.6865 25.3969 21.9103 25.7629C22.1328 26.1337 22.1928 26.5645 22.0778 26.9797ZM26.3515 16.1942C24.0078 15.593 21.5603 15.899 19.4591 17.063C17.3578 18.227 15.8566 20.1062 15.2291 22.3561C14.6016 24.6085 14.9241 26.9605 16.1403 28.9777C17.3528 30.9913 19.3116 32.429 21.6503 33.0266C22.4353 33.2294 23.2303 33.3302 24.0215 33.3302C25.5928 33.3302 27.144 32.9342 28.5415 32.1601C30.6415 30.9961 32.144 29.117 32.7728 26.8658C33.4003 24.6134 33.0765 22.2613 31.8615 20.243C30.6478 18.2306 28.6915 16.793 26.3515 16.1942Z" fill="#0091FF"/>
<path fill-rule="evenodd" clip-rule="evenodd" d="M32.1456 31.9609C31.6381 31.8301 31.1306 32.1193 30.9968 32.597C30.6143 33.9674 29.1368 34.7821 27.7068 34.4209C27.2081 34.2901 26.6943 34.5806 26.5606 35.0594C26.4281 35.5393 26.7256 36.0325 27.2256 36.1598C27.6168 36.2594 28.0093 36.3073 28.3968 36.3073C30.4131 36.3073 32.2643 35.0149 32.8081 33.0638C32.9431 32.5838 32.6443 32.0893 32.1456 31.9609Z" fill="#0091FF"/>
<path fill-rule="evenodd" clip-rule="evenodd" d="M15.6772 31.3247C14.9859 31.1495 14.4084 30.7235 14.0497 30.1295C13.6897 29.5319 13.5934 28.8359 13.7797 28.1675C13.9147 27.6875 13.6172 27.1943 13.1172 27.0647C12.6084 26.9387 12.1034 27.2231 11.9684 27.7007C11.6522 28.8347 11.8147 30.0179 12.4272 31.0319C13.0372 32.0435 14.0209 32.7647 15.1959 33.0635C15.2772 33.0851 15.3572 33.0947 15.4372 33.0947C15.8522 33.0947 16.2309 32.8283 16.3422 32.4251C16.4759 31.9451 16.1772 31.4507 15.6772 31.3247Z" fill="#0091FF"/>
<path fill-rule="evenodd" clip-rule="evenodd" d="M35.572 18.1869C34.9632 17.1765 33.9795 16.4565 32.8045 16.1577C32.3045 16.0293 31.792 16.3161 31.6582 16.7961C31.5257 17.2761 31.8232 17.7693 32.3232 17.8965C33.0145 18.0717 33.592 18.4965 33.9495 19.0893C34.3107 19.6869 34.407 20.3853 34.2207 21.0549C34.0882 21.5349 34.3845 22.027 34.8845 22.1566C34.9657 22.177 35.047 22.1866 35.127 22.1866C35.542 22.1866 35.9195 21.9214 36.032 21.5181C36.3482 20.3841 36.1845 19.2021 35.572 18.1869Z" fill="#0091FF"/>
<path fill-rule="evenodd" clip-rule="evenodd" d="M15.8552 17.2601C15.9352 17.2817 16.0177 17.2901 16.0964 17.2901C16.5114 17.2901 16.8902 17.0261 17.0027 16.6229C17.3852 15.2525 18.8677 14.4401 20.2914 14.8001C20.7864 14.9345 21.3039 14.6441 21.4377 14.1617C21.5702 13.6817 21.2727 13.1885 20.7727 13.0613C18.3364 12.4421 15.8377 13.8329 15.1914 16.1585C15.0577 16.6385 15.3552 17.1317 15.8552 17.2601Z" fill="#0091FF"/>
</svg>
