<svg width="48" height="48" viewBox="0 0 48 48" fill="none" xmlns="http://www.w3.org/2000/svg">
<path fill-rule="evenodd" clip-rule="evenodd" d="M32 18H16C15.448 18 15 17.553 15 17C15 16.447 15.448 16 16 16H32C32.552 16 33 16.447 33 17C33 17.553 32.552 18 32 18ZM32 32H16C15.448 32 15 31.553 15 31C15 30.447 15.448 30 16 30H32C32.552 30 33 30.447 33 31C33 31.553 32.552 32 32 32Z" fill="black"/>
<path fill-rule="evenodd" clip-rule="evenodd" d="M32 25H24C23.448 25 23 24.553 23 24C23 23.447 23.448 23 24 23H32C32.552 23 33 23.447 33 24C33 24.553 32.552 25 32 25Z" fill="black"/>
</svg>
