<svg width="48" height="48" viewBox="0 0 48 48" fill="none" xmlns="http://www.w3.org/2000/svg">
<path fill-rule="evenodd" clip-rule="evenodd" d="M27.1375 26.4802L27.0087 26.395C26.7475 26.2198 26.3862 26.2426 26.17 26.449L25.88 26.7298C25.5775 27.025 25.1012 27.0814 24.73 26.8678C23.29 26.035 22.5712 25.231 21.6725 23.9482C21.4262 23.5954 21.47 23.1238 21.7787 22.819L22.07 22.531C22.2987 22.3066 22.3262 21.9718 22.14 21.7114C21.9412 21.4449 21.7475 21.1773 21.5625 20.9217C21.455 20.7753 21.2787 20.6793 21.085 20.6637C21.0687 20.6625 21.05 20.6613 21.0287 20.6613C20.9112 20.6613 20.7312 20.6925 20.5762 20.8425L20.42 20.9937L20.4162 20.9973C19.0887 22.2754 20.5225 24.5626 22.3075 26.2774C24.07 27.9634 26.43 29.317 27.7575 28.0402L27.9412 27.8746C28.1025 27.7174 28.1137 27.5074 28.1037 27.3994C28.0937 27.2902 28.045 27.0874 27.8312 26.9446C27.6012 26.7862 27.375 26.6374 27.1375 26.4802Z" fill="#0091FF"/>
<path fill-rule="evenodd" clip-rule="evenodd" d="M29.2447 29.1688L29.0597 29.3368C28.3347 30.0292 27.4584 30.3712 26.4822 30.3712C24.8472 30.3712 22.9322 29.416 20.9834 27.5512C17.8884 24.58 17.1622 21.5823 19.0859 19.7283L19.2447 19.5747C19.7759 19.0635 20.5159 18.8043 21.2459 18.8703C21.9934 18.9327 22.6684 19.3047 23.0997 19.8927C23.2822 20.1459 23.4722 20.4063 23.6747 20.6775C24.3047 21.5535 24.2759 22.6948 23.6484 23.5216C24.0972 24.1084 24.5147 24.5416 25.1097 24.9556C25.9747 24.3352 27.1684 24.3088 28.0772 24.916L28.2009 24.9964C28.4497 25.162 28.6872 25.318 28.9147 25.4764C29.5159 25.8772 29.9047 26.5228 29.9722 27.238C30.0397 27.9556 29.7734 28.6588 29.2447 29.1688ZM35.6647 22.4356C34.7747 17.8911 30.9947 14.2635 26.2609 13.4115C22.7447 12.7767 19.1684 13.6623 16.4409 15.8343C13.6984 18.0183 12.1272 21.2163 12.1272 24.61C12.1272 26.3164 12.5322 28.012 13.3297 29.6452C13.3947 29.7868 13.4147 29.9296 13.3847 30.0616C13.1897 30.9124 12.7809 32.6248 12.4859 33.8488C12.3622 34.366 12.5247 34.894 12.9172 35.26C13.3059 35.6224 13.8559 35.7652 14.3809 35.632C15.5697 35.344 17.1984 34.9612 18.2209 34.732C18.3547 34.702 18.5022 34.72 18.6559 34.7932C20.3047 35.59 22.1534 36.01 24.0022 36.01C27.5347 36.01 30.8647 34.5016 33.1372 31.8724C35.4034 29.2528 36.3234 25.8124 35.6647 22.4356Z" fill="#0091FF"/>
</svg>
