<svg width="48" height="48" viewBox="0 0 48 48" fill="none" xmlns="http://www.w3.org/2000/svg">
<path fill-rule="evenodd" clip-rule="evenodd" d="M19.3356 28.1595C19.8492 28.1595 20.2668 28.5759 20.2668 29.0907C20.2668 29.6043 19.8492 30.0219 19.3356 30.0219C18.822 30.0219 18.4044 29.6043 18.4044 29.0907C18.4044 28.5759 18.822 28.1595 19.3356 28.1595ZM24.1812 28.1595C24.6948 28.1595 25.1124 28.5759 25.1124 29.0907C25.1124 29.6043 24.6948 30.0219 24.1812 30.0219C23.6664 30.0219 23.25 29.6043 23.25 29.0907C23.25 28.5759 23.6664 28.1595 24.1812 28.1595ZM28.998 28.1595C29.5116 28.1595 29.928 28.5759 29.928 29.0907C29.928 29.6043 29.5116 30.0219 28.998 30.0219C28.4832 30.0219 28.0668 29.6043 28.0668 29.0907C28.0668 28.5759 28.4832 28.1595 28.998 28.1595ZM13.8468 30.2379C13.8468 33.8139 15.9948 35.9499 19.5948 35.9499H28.7388C32.3388 35.9499 34.4868 33.8499 34.4868 30.3219V23.4699C34.4868 23.3373 34.3794 23.2299 34.2468 23.2299H14.0868C13.9542 23.2299 13.8468 23.3373 13.8468 23.4699V30.2379Z" fill="#FFAD00"/>
<path fill-rule="evenodd" clip-rule="evenodd" d="M33.0105 16.39C32.1345 15.526 30.8985 15.034 29.4345 14.902V13.75C29.4345 13.258 29.0265 12.85 28.5345 12.85C28.0305 12.85 27.6345 13.258 27.6345 13.75V18.01C27.5505 18.034 27.4785 18.058 27.3945 18.058C26.8905 18.058 26.4945 17.65 26.4945 17.158V15.094C26.4945 14.9614 26.3871 14.854 26.2545 14.854H20.6986V13.75C20.6986 13.258 20.3026 12.85 19.7986 12.85C19.3066 12.85 18.8986 13.258 18.8986 13.75V18.01C18.8266 18.034 18.7426 18.058 18.6586 18.058C18.1666 18.058 17.7586 17.65 17.7586 17.158V15.4006C17.7586 15.2447 17.6117 15.1301 17.4624 15.1749C15.1719 15.8617 13.8466 17.7185 13.8466 20.47V21.19C13.8466 21.3225 13.954 21.43 14.0866 21.43H34.2465C34.3791 21.43 34.4865 21.3225 34.4865 21.19V20.47C34.4865 18.778 33.9825 17.362 33.0105 16.39Z" fill="#FFAD00"/>
</svg>
