<svg width="48" height="48" viewBox="0 0 48 48" fill="none" xmlns="http://www.w3.org/2000/svg">
<path fill-rule="evenodd" clip-rule="evenodd" d="M24.1255 13.187C27.3018 13.187 29.8755 15.762 29.8755 18.937C29.8755 22.1132 27.3018 24.687 24.1255 24.687C20.9492 24.687 18.3755 22.1132 18.3755 18.937C18.3755 15.762 20.9492 13.187 24.1255 13.187Z" fill="#FFAD00"/>
<path fill-rule="evenodd" clip-rule="evenodd" d="M27.1255 26.312H21.2505C18.0005 26.312 15.2505 29.062 15.2505 32.312C15.2505 32.937 15.2505 33.687 15.3755 34.312C15.3755 34.562 15.6255 34.812 16.0005 34.812H32.3755C32.6255 34.812 32.8755 34.562 33.0005 34.312C33.1255 33.687 33.1255 32.937 33.1255 32.312C33.0005 28.937 30.3755 26.312 27.1255 26.312Z" fill="#FFAD00"/>
</svg>
