<svg width="48" height="48" viewBox="0 0 48 48" fill="none" xmlns="http://www.w3.org/2000/svg">
<path fill-rule="evenodd" clip-rule="evenodd" d="M33.6558 23.402C33.4599 22.706 33.0338 22.173 32.4248 21.86C31.2498 21.256 29.8478 21.652 29.2998 21.85C28.2118 22.243 27.1628 22.704 26.0698 23.146C24.8548 22.021 23.6198 20.936 22.4668 19.931C21.6408 19.209 20.7928 18.944 19.9398 19.148C19.4968 19.256 19.0778 19.417 18.6728 19.572C18.4668 19.652 18.2568 19.732 18.0408 19.807C17.8448 19.874 17.6868 20.019 17.6018 20.207C17.5168 20.396 17.5128 20.611 17.5918 20.802L19.6618 25.821C18.9478 26.121 18.0708 26.493 17.2438 26.844L15.9988 27.372C15.8758 27.074 15.7428 26.754 15.6938 26.632C15.5358 26.25 15.0998 26.064 14.7158 26.222C14.3318 26.379 14.1478 26.817 14.3048 27.2C14.3948 27.421 14.7538 28.285 14.8478 28.51C14.8668 28.555 14.8868 28.599 14.9058 28.643L14.9078 28.646C14.9138 28.66 14.9198 28.674 14.9268 28.688C15.8148 30.631 17.2928 31.661 19.0828 31.661C19.7588 31.661 20.4808 31.513 21.2318 31.212C24.5308 29.895 27.6978 28.571 31.4998 26.975C32.8568 26.394 34.1118 25.027 33.6558 23.402Z" fill="#18181B"/>
</svg>
