<svg width="48" height="48" viewBox="0 0 48 48" fill="none" xmlns="http://www.w3.org/2000/svg">
<path fill-rule="evenodd" clip-rule="evenodd" d="M35.308 15.8026C35.1808 15.6034 34.9504 15.4918 34.7128 15.5314L32.3092 15.889C31.6312 15.1306 29.5552 13.1962 26.6908 14.0626C24.2104 14.8234 23.0296 17.461 22.9588 19.4746C19.8832 18.9106 17.0128 17.3962 14.8144 15.1642C14.6572 15.0046 14.4232 14.9458 14.2072 15.013C13.9912 15.0802 13.8328 15.2626 13.7956 15.4846C12.6976 22.0162 14.116 26.3758 18.256 29.1118C16.7188 29.959 14.956 30.3946 13.2208 30.3322C12.9832 30.331 12.766 30.457 12.6628 30.6694C12.5584 30.8806 12.5896 31.1338 12.7408 31.3162C14.5192 33.4546 17.8696 34.1878 20.5396 34.1878C20.848 34.1878 21.1468 34.1782 21.4336 34.1602C25.3216 33.9178 28.5268 32.3122 30.7024 29.515C32.7628 26.8666 33.76 23.227 33.5092 19.237L33.502 19.1782L35.302 16.4554C35.4328 16.2586 35.4352 16.0018 35.308 15.8026Z" fill="#0091FF"/>
</svg>
