<svg width="48" height="48" viewBox="0 0 48 48" fill="none" xmlns="http://www.w3.org/2000/svg">
<path d="M29.0592 13.375C30.5678 13.375 32.0191 13.9712 33.0867 15.0411C34.1554 16.1087 34.7528 17.5488 34.7528 19.0563V27.9437C34.7528 31.0825 32.1991 33.625 29.0592 33.625H17.9453C14.8054 33.625 12.2528 31.0825 12.2528 27.9437V19.0563C12.2528 15.9175 14.7942 13.375 17.9453 13.375H29.0592ZM30.3316 19.225C30.0953 19.2126 29.8703 19.2925 29.7004 19.45L24.6278 23.5C23.9753 24.0411 23.0404 24.0411 22.3778 23.5L17.3153 19.45C16.9654 19.1913 16.4817 19.225 16.1903 19.5287C15.8866 19.8325 15.8528 20.3162 16.1104 20.6537L16.2578 20.8L21.3766 24.7937C22.0066 25.2887 22.7704 25.5587 23.5703 25.5587C24.3679 25.5587 25.1453 25.2887 25.7742 24.7937L30.8491 20.7325L30.9391 20.6425C31.2079 20.3163 31.2079 19.8438 30.9267 19.5175C30.7703 19.3499 30.5554 19.2475 30.3316 19.225Z" fill="white"/>
</svg>
