<svg width="48" height="48" viewBox="0 0 48 48" fill="none" xmlns="http://www.w3.org/2000/svg">
<path fill-rule="evenodd" clip-rule="evenodd" d="M23.8115 21.1094C21.9899 21.1094 20.5078 22.589 20.5078 24.4094C20.5078 26.2298 21.9899 27.7094 23.8115 27.7094C25.6331 27.7094 27.1139 26.2298 27.1139 24.4094C27.1139 22.589 25.6331 21.1094 23.8115 21.1094Z" fill="#0091FF"/>
<path fill-rule="evenodd" clip-rule="evenodd" d="M29.8384 19.7002C29.1544 19.7002 28.5964 19.1458 28.5964 18.4654C28.5964 17.7826 29.1544 17.2282 29.8384 17.2282C30.5224 17.2282 31.0792 17.7826 31.0792 18.4654C31.0792 19.1458 30.5224 19.7002 29.8384 19.7002ZM23.8144 29.5054C21.0016 29.5054 18.712 27.2182 18.712 24.4054C18.712 21.5926 21.0016 19.3054 23.8144 19.3054C26.6284 19.3054 28.9168 21.5926 28.9168 24.4054C28.9168 27.2182 26.6284 29.5054 23.8144 29.5054ZM29.062 12.6094H18.94C15.1492 12.6094 12.6016 15.2758 12.6016 19.2454V28.7734C12.6016 32.7418 15.1492 35.4094 18.94 35.4094H29.0608C32.8528 35.4094 35.4016 32.7418 35.4016 28.7734V19.2454C35.4016 15.2758 32.854 12.6094 29.062 12.6094Z" fill="#0091FF"/>
</svg>
